<?xml version="1.0" standalone="no"?>
<!DOCTYPE svg PUBLIC "-//W3C//DTD SVG 20010904//EN"
 "http://www.w3.org/TR/2001/REC-SVG-20010904/DTD/svg10.dtd">
<svg version="1.0" xmlns="http://www.w3.org/2000/svg"
 width="1500.000000pt" height="1500.000000pt" viewBox="0 0 1500.000000 1500.000000"
 preserveAspectRatio="xMidYMid meet">
<metadata>
Created by potrace 1.14, written by Peter Selinger 2001-2017
</metadata>
<g transform="translate(0.000000,1500.000000) scale(0.100000,-0.100000)"
fill="#000000" stroke="none">
<path d="M7318 14495 c-2 -2 -59 -6 -128 -10 -219 -12 -301 -20 -537 -51 -148
-19 -272 -40 -438 -74 -82 -17 -159 -32 -170 -34 -30 -5 -376 -95 -405 -106
-14 -5 -79 -25 -145 -45 -66 -20 -133 -41 -150 -48 -16 -6 -32 -12 -35 -13 -3
0 -12 -4 -20 -7 -8 -3 -42 -16 -75 -28 -122 -43 -292 -110 -385 -151 -25 -11
-61 -27 -80 -35 -79 -35 -420 -204 -485 -240 -38 -22 -92 -52 -120 -68 -135
-75 -524 -321 -579 -366 -6 -5 -69 -52 -141 -105 -186 -138 -364 -285 -539
-444 -68 -61 -379 -372 -441 -440 -77 -85 -126 -140 -175 -199 -25 -30 -49
-59 -55 -65 -5 -6 -28 -34 -50 -61 -21 -28 -42 -52 -45 -55 -34 -31 -370 -502
-370 -519 0 -6 -4 -11 -9 -11 -5 0 -14 -13 -21 -30 -7 -16 -16 -30 -21 -30 -5
0 -9 -4 -9 -9 0 -5 -26 -51 -59 -102 -32 -52 -69 -114 -83 -139 -14 -25 -42
-74 -63 -110 -71 -123 -243 -475 -319 -654 -74 -173 -177 -449 -229 -611 -38
-120 -122 -419 -131 -465 -3 -14 -20 -93 -39 -175 -19 -83 -37 -168 -41 -190
-3 -22 -8 -51 -11 -65 -3 -14 -7 -41 -10 -60 -3 -19 -7 -46 -10 -60 -3 -14 -7
-41 -9 -60 -3 -19 -7 -51 -10 -70 -3 -19 -8 -55 -11 -80 -2 -25 -7 -55 -9 -67
-3 -12 -7 -55 -11 -95 -3 -40 -8 -89 -10 -108 -4 -38 -12 -157 -21 -290 -8
-118 -8 -574 0 -695 14 -214 16 -251 21 -295 2 -25 7 -72 10 -105 3 -33 8 -73
11 -88 3 -15 7 -47 9 -70 2 -39 8 -81 22 -162 2 -16 6 -39 8 -50 1 -11 5 -36
9 -55 3 -19 8 -48 11 -65 3 -16 10 -52 15 -80 6 -27 12 -63 15 -80 3 -16 10
-48 15 -70 6 -22 17 -71 25 -110 9 -38 18 -78 20 -87 3 -10 7 -26 9 -35 21
-88 29 -120 33 -133 3 -8 7 -19 8 -25 14 -62 135 -447 145 -460 4 -5 13 -32
20 -60 7 -27 16 -54 20 -60 4 -5 17 -37 29 -70 31 -82 51 -131 76 -190 12 -27
37 -86 56 -130 136 -319 401 -796 607 -1095 37 -52 80 -115 96 -140 16 -25 33
-47 36 -50 4 -3 26 -32 50 -65 88 -122 296 -376 395 -484 184 -201 350 -369
485 -491 45 -41 88 -80 95 -87 14 -13 154 -132 208 -177 22 -17 44 -36 50 -41
34 -30 134 -105 140 -105 7 0 3 5036 -3 5565 -3 181 2 319 15 430 11 92 16
132 20 163 13 84 15 99 20 124 4 15 8 39 10 55 2 15 7 39 10 53 3 14 7 37 10
52 2 15 6 32 9 37 4 5 8 22 10 38 16 122 148 531 237 731 51 115 163 338 205
409 26 43 57 97 70 120 35 61 175 267 188 275 6 5 7 8 1 8 -6 0 -6 3 1 8 6 4
35 39 64 77 128 168 269 325 414 464 32 31 73 70 90 86 17 17 60 55 96 85 36
30 67 57 70 60 3 3 55 44 115 91 146 114 471 327 499 327 5 0 12 5 15 10 3 5
24 18 46 29 22 11 95 48 162 82 67 33 125 61 127 61 3 0 29 11 58 25 106 49
327 128 488 175 41 12 86 25 100 30 21 8 80 21 200 46 122 25 233 45 302 54
46 6 97 12 113 15 196 27 800 27 955 0 14 -2 48 -7 75 -10 28 -3 77 -10 110
-16 33 -6 73 -13 90 -15 46 -6 188 -34 205 -41 8 -3 26 -8 40 -10 33 -6 239
-62 265 -72 11 -5 58 -21 105 -36 47 -15 96 -32 110 -38 14 -6 27 -11 30 -12
3 -1 19 -7 35 -14 17 -6 44 -16 60 -22 34 -13 67 -27 220 -99 61 -28 117 -55
125 -60 8 -6 22 -13 30 -17 8 -3 47 -24 85 -47 39 -22 72 -41 75 -41 30 -5
503 -331 530 -365 3 -3 45 -39 94 -80 49 -40 152 -137 230 -214 139 -138 181
-184 261 -281 22 -27 48 -57 58 -67 9 -10 17 -22 17 -27 0 -5 4 -11 8 -13 10
-4 160 -206 213 -288 64 -99 94 -147 105 -170 4 -7 24 -41 44 -75 20 -33 49
-85 64 -115 15 -30 31 -62 37 -70 5 -8 28 -58 52 -110 l44 -95 1444 1 1444 0
-3 25 c-2 23 -48 198 -59 229 -3 8 -7 22 -9 30 -6 29 -112 347 -148 445 -152
409 -393 902 -588 1208 -21 32 -38 61 -38 63 0 3 -44 70 -97 150 -54 80 -102
153 -108 162 -5 9 -12 19 -15 22 -3 3 -30 39 -60 80 -30 41 -58 80 -63 85 -4
6 -37 48 -73 95 -258 332 -619 716 -904 960 -14 12 -36 31 -50 43 -202 176
-476 383 -715 540 -38 26 -75 51 -82 57 -7 5 -15 10 -18 10 -3 0 -36 19 -73
43 -112 72 -115 74 -277 164 -44 24 -87 48 -95 53 -27 16 -334 168 -415 205
-87 40 -323 138 -420 174 -33 13 -68 27 -77 32 -10 5 -26 9 -36 9 -10 0 -22 4
-28 10 -5 5 -18 11 -29 13 -11 2 -27 7 -35 10 -61 23 -286 93 -395 122 -179
48 -242 64 -265 69 -14 3 -34 7 -45 10 -21 5 -257 54 -290 61 -11 2 -36 6 -55
9 -19 3 -78 12 -130 20 -138 21 -208 31 -295 40 -27 3 -70 8 -95 10 -25 3 -79
8 -120 11 -41 4 -95 8 -120 11 -50 5 -737 13 -742 9z"/>
<path d="M11482 5751 c-5 -4 -35 -60 -67 -126 -137 -278 -347 -604 -531 -824
-47 -56 -59 -70 -122 -140 -135 -150 -307 -314 -472 -452 -114 -94 -445 -329
-465 -329 -3 0 -18 -8 -33 -19 -43 -29 -87 -55 -92 -54 -3 0 -16 -7 -30 -17
-37 -26 -242 -130 -257 -130 -7 0 -13 -4 -13 -10 0 -5 -6 -10 -13 -10 -8 0
-41 -13 -75 -30 -34 -16 -69 -30 -77 -30 -8 0 -15 -5 -15 -12 0 -6 -3 -8 -6
-5 -4 3 -16 2 -26 -4 -35 -19 -277 -105 -320 -114 -9 -2 -25 -8 -36 -14 -11
-6 -22 -8 -25 -4 -4 3 -12 1 -19 -4 -12 -9 -196 -59 -257 -69 -14 -3 -33 -7
-41 -9 -8 -2 -28 -7 -45 -10 -16 -2 -41 -7 -55 -10 -14 -3 -41 -8 -60 -11 -47
-7 -81 -13 -105 -18 -47 -9 -145 -19 -315 -32 -195 -16 -599 -9 -760 12 -19 3
-55 7 -80 9 -43 4 -145 20 -200 31 -14 3 -38 8 -55 11 -16 3 -61 11 -100 19
-38 8 -81 17 -95 20 -14 2 -32 7 -40 11 -8 3 -26 8 -40 10 -27 4 -220 62 -315
95 -87 29 -250 93 -335 130 -89 39 -327 161 -426 219 -55 32 -104 59 -107 59
-3 0 -6 -679 -6 -1508 l0 -1508 72 -24 c167 -53 535 -156 592 -165 31 -5 77
-15 115 -25 19 -5 49 -11 65 -14 17 -3 55 -10 85 -16 75 -15 89 -18 134 -24
21 -4 41 -8 45 -10 3 -2 33 -7 66 -10 33 -3 71 -8 84 -11 12 -2 42 -7 65 -9
22 -3 61 -8 86 -11 25 -3 59 -8 76 -10 17 -2 64 -6 105 -10 41 -3 94 -8 119
-10 317 -28 929 -23 1200 10 25 3 71 8 103 11 32 3 68 7 80 10 12 2 45 6 72 9
77 8 124 14 190 26 33 6 69 12 80 14 17 2 100 16 115 20 3 1 25 5 50 9 54 10
56 10 150 31 41 9 82 18 90 20 43 9 272 68 320 83 62 18 55 16 95 26 17 4 37
10 45 13 8 4 17 7 20 8 75 19 453 153 527 186 23 10 44 19 48 19 5 0 37 14
153 66 29 13 55 24 57 24 12 0 316 148 430 210 129 70 247 137 405 233 125 75
458 305 585 405 30 23 214 173 235 191 14 12 43 37 65 56 22 18 51 43 65 55
111 95 405 385 531 524 30 33 62 68 71 77 52 55 252 300 350 431 159 211 267
373 445 663 12 19 75 132 135 240 33 61 188 372 188 378 0 3 18 43 39 89 22
45 53 119 71 163 17 44 38 92 46 108 8 15 12 27 8 27 -3 0 -1 6 5 13 6 8 8 17
4 20 -3 4 -1 7 5 7 7 0 11 3 11 8 -1 4 0 9 1 12 1 3 3 12 5 20 3 12 48 136 72
200 3 8 7 20 9 25 1 6 12 39 24 75 28 86 96 317 104 355 4 17 9 37 12 45 4 14
-141 16 -1441 16 -795 0 -1449 -2 -1453 -5z"/>
</g>
</svg>
